<?xml version="1.0" encoding="UTF-8"?>
<svg xmlns="http://www.w3.org/2000/svg" id="a" data-name="ART" width="1920" height="1080" viewBox="0 0 1920 1080">
  <rect id="b" data-name="Background" width="1920" height="1080" fill="#000018"></rect>
  <path id="c" data-name="Circle A" d="m391.57819,789c2.20898,0,4-1.78897,4-4s-1.79102-4-4-4-4,1.789-4,4,1.79099,4,4,4" fill="#fff"></path>
  <path id="d" data-name="Circle B" d="m2098.80005,771c427.46777,0,774-346.53101,774-774s-346.53223-774-774-774S1324.80005-430.46899,1324.80005-3s346.53101,774,774,774" fill="blue"></path>
  <path id="e" data-name="Circle C" d="m69.5079,468.41412c92.07,0,166.70798-74.64099,166.70798-166.711s-74.63799-166.703-166.70798-166.703-166.70799,74.633-166.70799,166.703S-22.5621,468.41412,69.5079,468.41412" fill="#286dc0"></path>
  <path id="f" data-name="Circle D" d="m729.28912,1392.02341c180.43695,0,326.711-146.27299,326.711-326.711s-146.27405-326.711-326.711-326.711-326.711,146.27399-326.711,326.711,146.27399,326.711,326.711,326.711" fill="#bf00bf"></path>
  <path id="g" data-name="Wordmark" d="m701.4593,450.60385h8.97832l-12.99281,41.09529h-7.66392l-9.63498-24.16036-9.92767,24.16036h-7.66392l-12.55432-41.09529h9.26993l8.02897,29.34452,12.26271-29.92774h1.53257l12.04454,29.8543,8.32058-29.27108Zm34.9769,41.68067c-5.44985,0-9.69655-1.57037-12.73684-4.70895-3.04138-3.13858-4.56206-7.50624-4.56206-13.10297v-23.86875h8.53983v23.94219c0,3.31138.77762,5.85162,2.33611,7.62936,1.55633,1.77558,3.74664,2.66336,6.56985,2.66336,2.82105,0,4.99948-.90075,6.53205-2.70009,1.53365-1.8015,2.29939-4.3547,2.29939-7.66608v-23.86875h8.32166v23.86875c0,5.54921-1.53257,9.90391-4.59878,13.06625-3.06622,3.1645-7.29887,4.74567-12.7012,4.74567Zm76.01387-41.68067v7.59264h-13.86872v33.28449h-8.61327v-33.28449h-13.79527v-7.59264h36.27726Zm19.47409,23.50586c-4.42814-1.8015-7.44467-3.63755-9.05068-5.51249-1.60601-1.87278-2.40956-4.27045-2.40956-7.18871,0-3.35891,1.3144-6.11947,3.94212-8.28602,2.62772-2.16439,5.98555-3.24658,10.07348-3.24658,2.14063,0,4.17109.24409,6.09463.72794,1.92138.48818,3.78336,1.21828,5.58378,2.19031v8.39402h-.1458c-2.0445-1.36084-4.05121-2.40848-6.02227-3.13858s-3.83196-1.09515-5.58378-1.09515c-1.70429,0-3.06622.37801-4.08793,1.13188-1.02171.75602-1.53257,1.76478-1.53257,3.03058,0,1.16644.4979,2.17735,1.49585,3.02842.99687.85107,3.00465,1.9095,6.02227,3.1753,4.52534,1.84902,7.61532,3.73476,9.26993,5.65722s2.48192,4.34174,2.48192,7.26215c0,3.55331-1.35004,6.437-4.05121,8.64891-2.70009,2.21623-6.21668,3.32218-10.54761,3.32218-2.23891,0-4.4519-.34129-6.64221-1.02171-2.18923-.68042-4.23373-1.67837-6.13135-2.99385l-1.16752-9.05068.1458-.07344c2.28643,1.8987,4.65927,3.38267,7.11634,4.45406,2.45708,1.06923,4.73271,1.60493,6.82581,1.60493,1.89762,0,3.39347-.38881,4.48862-1.1686,1.09515-.77762,1.64273-1.87278,1.64273-3.2833,0-1.31332-.51086-2.40848-1.53365-3.28546-1.02171-.87483-3.11482-1.96998-6.27716-3.2833Zm31.16006,17.37127h-8.83252l16.42408-41.09529h9.12413l15.98558,41.09529h-9.12413l-3.21202-8.90596h-17.0073l-3.35783,8.90596Zm11.89765-32.55438l-6.20372,16.78805h12.33507l-6.13135-16.78805Zm38.17488,32.55438h-8.53983v-40.87713h8.53983v40.87713Zm39.2614,0h-8.53983v-40.87713h8.53983v40.87713Zm20.86086,0h-8.32166v-40.87713h8.54091l18.83147,24.59885-.07128-24.59885h8.32058v41.09529h-5.182l-22.19146-28.46754.07344,28.24937Zm49.81873-17.37127c-4.4303-1.8015-7.44575-3.63755-9.05285-5.51249-1.60493-1.87278-2.40848-4.27045-2.40848-7.18871,0-3.35891,1.31332-6.11947,3.94212-8.28602,2.6288-2.16439,5.98555-3.24658,10.0724-3.24658,2.14063,0,4.17325.24409,6.09571.72794,1.92246.48818,3.78228,1.21828,5.58378,2.19031v8.39402h-.14688c-2.04342-1.36084-4.05013-2.40848-6.02011-3.13858-1.97214-.7301-3.83196-1.09515-5.58594-1.09515-1.70213,0-3.06514.37801-4.08685,1.13188-1.02171.75602-1.53149,1.76478-1.53149,3.03058,0,1.16644.49682,2.17735,1.49477,3.02842s3.00465,1.9095,6.02227,3.1753c4.52534,1.84902,7.6164,3.73476,9.27101,5.65722,1.65245,1.92246,2.48192,4.34174,2.48192,7.26215,0,3.55331-1.3522,6.437-4.05229,8.64891-2.70009,2.21623-6.21668,3.32218-10.54761,3.32218-2.23783,0-4.4519-.34129-6.64221-1.02171s-4.23373-1.67837-6.13027-2.99385l-1.1686-9.05068.14688-.07344c2.28535,1.8987,4.65711,3.38267,7.11526,4.45406,2.45816,1.06923,4.73271,1.60493,6.82581,1.60493,1.89654,0,3.39347-.38881,4.48862-1.1686,1.09515-.77762,1.64165-1.87278,1.64165-3.2833,0-1.31332-.50978-2.40848-1.53149-3.28546-1.02171-.87483-3.11482-1.96998-6.27716-3.2833Zm59.42131-23.50586v7.59264h-13.86764v33.28449h-8.61435v-33.28449h-13.79419v-7.59264h36.27618Zm17.61967,40.87713h-8.54091v-40.87713h8.54091v40.87713Zm45.43055-40.87713v7.59264h-13.86764v33.28449h-8.61435v-33.28449h-13.79419v-7.59264h36.27618Zm26.02882,41.68067c-5.44985,0-9.69655-1.57037-12.73792-4.70895-3.04138-3.13858-4.56206-7.50624-4.56206-13.10297v-23.86875h8.54091v23.94219c0,3.31138.77762,5.85162,2.33503,7.62936,1.55741,1.77558,3.74772,2.66336,6.57093,2.66336,2.82105,0,5.00056-.90075,6.53205-2.70009,1.53365-1.8015,2.30047-4.3547,2.30047-7.66608v-23.86875h8.32058v23.86875c0,5.54921-1.53365,9.90391-4.59878,13.06625-3.06514,3.1645-7.29887,4.74567-12.7012,4.74567Zm62.3806-41.68067v7.59264h-13.86764v33.28449h-8.61435v-33.28449h-13.79419v-7.59264h36.27618Zm34.41636,40.87713h-25.47584v-40.87713h25.32896l1.53365,7.30103h-18.39514v9.48918h15.54817v6.71565h-15.54817v10.0724h18.61331l-1.60493,7.29887Zm-584.89781,40.96353h9.34337l-15.18312,24.01564v16.86041h-8.53983v-16.93385l-15.18312-23.94219h9.78187l9.92659,16.64332,9.85423-16.64332Zm17.08074,40.87605h-8.83252l16.42408-41.09421h9.12413l15.98558,41.09421h-9.12413l-3.21202-8.90488h-17.0073l-3.35783,8.90488Zm11.89765-32.5533l-6.20372,16.78805h12.33507l-6.13135-16.78805Zm54.75124,32.5533h-25.2566v-40.87605h8.54091v33.28665h16.71569v7.5894Zm34.62697,0h-25.47476v-40.87605h25.32896l1.53257,7.30103h-18.39406v9.48918h15.54817v6.71565h-15.54817v10.0724h18.61331l-1.60601,7.29779Zm46.74387.80355c-5.44985,0-9.69655-1.57037-12.73684-4.70895-3.04138-3.1375-4.56206-7.50516-4.56206-13.10189v-23.86875h8.53983v23.94219c0,3.31138.77762,5.85162,2.33611,7.62936,1.55633,1.77558,3.74664,2.66336,6.56985,2.66336,2.82105,0,4.99948-.90075,6.53205-2.70009,1.53365-1.8015,2.29939-4.3547,2.29939-7.66608v-23.86875h8.32166v23.86875c0,5.54921-1.53257,9.90391-4.59878,13.06517-3.06622,3.1645-7.29887,4.74567-12.7012,4.74567Zm37.64135-.80355h-8.32166v-40.87605h8.54091l18.83147,24.59885-.07236-24.59885h8.32058v41.09421h-5.182l-22.19038-28.46646.07344,28.24829Zm48.34232,0h-8.53983v-40.87605h8.53983v40.87605Zm40.40191-40.87605h8.83144l-16.86149,41.31454h-6.93382l-16.56988-41.31454h9.34337l10.94938,29.63613,11.24099-29.63613Zm43.03611,40.87605h-25.47368v-40.87605h25.3268l1.53365,7.30103h-18.39298v9.48918h15.54601v6.71565h-15.54601v10.0724h18.61331l-1.60709,7.29779Zm46.56891,0h-10.0724l-11.16755-15.03515h-4.52534v15.03515h-8.54091v-40.87605h14.74462c4.71975,0,8.38106,1.10811,10.98611,3.32218,2.60288,2.21407,3.9054,5.31809,3.9054,9.30557,0,2.67848-.70634,5.02648-2.11687,7.04398-1.41268,2.02182-3.38267,3.56627-5.91211,4.63551l12.69904,16.5688Zm-13.13753-27.73635c0-1.8987-.60914-3.38051-1.82526-4.4519s-2.92041-1.60709-5.10856-1.60709h-5.84082v12.26271h5.54921c2.18815,0,3.93996-.57026,5.25545-1.71509,1.31332-1.14268,1.96998-2.6396,1.96998-4.48862Zm31.38795,10.36617c-4.4303-1.8015-7.44575-3.63755-9.05285-5.51249-1.60493-1.87278-2.40848-4.27045-2.40848-7.18871,0-3.35891,1.31332-6.11947,3.94212-8.28602,2.6288-2.16439,5.98555-3.24658,10.0724-3.24658,2.14063,0,4.17325.24409,6.09571.72794,1.92246.48818,3.78228,1.21828,5.58378,2.19031v8.39402h-.14688c-2.04342-1.36084-4.05013-2.40848-6.02011-3.13858-1.97214-.7301-3.83196-1.09515-5.58594-1.09515-1.70213,0-3.06514.37801-4.08685,1.13188-1.02171.75602-1.53149,1.76478-1.53149,3.03058,0,1.16644.49682,2.17735,1.49477,3.02842.99795.85107,3.00465,1.9095,6.02227,3.1753,4.52534,1.84902,7.6164,3.73476,9.27101,5.65722,1.65245,1.92246,2.48192,4.34174,2.48192,7.26215,0,3.55331-1.3522,6.43592-4.05229,8.64783-2.70009,2.21623-6.21668,3.32218-10.54761,3.32218-2.23783,0-4.4519-.34129-6.64221-1.02171s-4.23373-1.67837-6.13027-2.99385l-1.1686-9.0496.14688-.07344c2.28535,1.8987,4.65711,3.38267,7.11526,4.45406,2.45816,1.06923,4.73271,1.60385,6.82581,1.60385,1.89654,0,3.39347-.38773,4.48862-1.16752,1.09515-.77762,1.64165-1.87278,1.64165-3.2833,0-1.31332-.50978-2.40848-1.53149-3.28546-1.02171-.87483-3.11482-1.96998-6.27716-3.2833Zm35.04278,17.37019h-8.54091v-40.87605h8.54091v40.87605Zm45.43055-40.87605v7.59264h-13.86764v33.28341h-8.61435v-33.28341h-13.79419v-7.59264h36.27618Zm35.40135,0h9.34445l-15.18312,24.01564v16.86041h-8.54091v-16.93385l-15.18096-23.94219h9.78079l9.92767,16.64332,9.85207-16.64332Z" fill="#fff"></path>
</svg>
